<?xml version="1.0" encoding="UTF-8"?>
<svg width="700pt" height="700pt" version="1.1" viewBox="0 0 700 700" xmlns="http://www.w3.org/2000/svg" xmlns:xlink="http://www.w3.org/1999/xlink">
 <defs>
  <symbol id="v" overflow="visible">
   <path d="m18.766-1.125c-0.96875 0.5-1.9805 0.875-3.0312 1.125-1.043 0.25781-2.1367 0.39062-3.2812 0.39062-3.3984 0-6.0898-0.94531-8.0781-2.8438-1.9922-1.9062-2.9844-4.4844-2.9844-7.7344 0-3.2578 0.99219-5.8359 2.9844-7.7344 1.9883-1.9062 4.6797-2.8594 8.0781-2.8594 1.1445 0 2.2383 0.13281 3.2812 0.39062 1.0508 0.25 2.0625 0.625 3.0312 1.125v4.2188c-0.98047-0.65625-1.9453-1.1406-2.8906-1.4531-0.94922-0.3125-1.9492-0.46875-3-0.46875-1.875 0-3.3516 0.60547-4.4219 1.8125-1.0742 1.1992-1.6094 2.8555-1.6094 4.9688 0 2.1055 0.53516 3.7617 1.6094 4.9688 1.0703 1.1992 2.5469 1.7969 4.4219 1.7969 1.0508 0 2.0508-0.14844 3-0.45312 0.94531-0.3125 1.9102-0.80078 2.8906-1.4688z"/>
  </symbol>
  <symbol id="c" overflow="visible">
   <path d="m13.734-11.141c-0.4375-0.19531-0.87109-0.34375-1.2969-0.4375-0.41797-0.10156-0.83984-0.15625-1.2656-0.15625-1.2617 0-2.2305 0.40625-2.9062 1.2188-0.67969 0.80469-1.0156 1.9531-1.0156 3.4531v7.0625h-4.8906v-15.312h4.8906v2.5156c0.625-1 1.3438-1.7266 2.1562-2.1875 0.82031-0.46875 1.8008-0.70312 2.9375-0.70312 0.16406 0 0.34375 0.011719 0.53125 0.03125 0.19531 0.011719 0.47656 0.039062 0.84375 0.078125z"/>
  </symbol>
  <symbol id="a" overflow="visible">
   <path d="m17.641-7.7031v1.4062h-11.453c0.125 1.1484 0.53906 2.0078 1.25 2.5781 0.70703 0.57422 1.7031 0.85938 2.9844 0.85938 1.0312 0 2.082-0.14844 3.1562-0.45312 1.082-0.3125 2.1914-0.77344 3.3281-1.3906v3.7656c-1.1562 0.4375-2.3125 0.76562-3.4688 0.98438-1.1562 0.22656-2.3125 0.34375-3.4688 0.34375-2.7734 0-4.9297-0.70312-6.4688-2.1094-1.5312-1.4062-2.2969-3.3789-2.2969-5.9219 0-2.5 0.75391-4.4609 2.2656-5.8906 1.5078-1.4375 3.582-2.1562 6.2188-2.1562 2.4062 0 4.332 0.73047 5.7812 2.1875 1.4453 1.4492 2.1719 3.3828 2.1719 5.7969zm-5.0312-1.625c0-0.92578-0.27344-1.6719-0.8125-2.2344-0.54297-0.57031-1.25-0.85938-2.125-0.85938-0.94922 0-1.7188 0.26562-2.3125 0.79688s-0.96484 1.2969-1.1094 2.2969z"/>
  </symbol>
  <symbol id="e" overflow="visible">
   <path d="m9.2188-6.8906c-1.0234 0-1.793 0.17188-2.3125 0.51562-0.51172 0.34375-0.76562 0.85547-0.76562 1.5312 0 0.625 0.20703 1.1172 0.625 1.4688 0.41406 0.34375 0.98828 0.51562 1.7188 0.51562 0.92578 0 1.7031-0.32812 2.3281-0.98438 0.63281-0.66406 0.95312-1.4922 0.95312-2.4844v-0.5625zm7.4688-1.8438v8.7344h-4.9219v-2.2656c-0.65625 0.92969-1.3984 1.6055-2.2188 2.0312-0.82422 0.41406-1.8242 0.625-3 0.625-1.5859 0-2.8711-0.45703-3.8594-1.375-0.99219-0.92578-1.4844-2.1289-1.4844-3.6094 0-1.7891 0.61328-3.1016 1.8438-3.9375 1.2383-0.84375 3.1797-1.2656 5.8281-1.2656h2.8906v-0.39062c0-0.76953-0.30859-1.332-0.92188-1.6875-0.61719-0.36328-1.5703-0.54688-2.8594-0.54688-1.0547 0-2.0312 0.10547-2.9375 0.3125-0.89844 0.21094-1.7305 0.52344-2.5 0.9375v-3.7344c1.0391-0.25 2.0859-0.44141 3.1406-0.57812 1.0625-0.13281 2.125-0.20312 3.1875-0.20312 2.7578 0 4.75 0.54688 5.9688 1.6406 1.2266 1.0859 1.8438 2.8555 1.8438 5.3125z"/>
  </symbol>
  <symbol id="b" overflow="visible">
   <path d="m7.7031-19.656v4.3438h5.0469v3.5h-5.0469v6.5c0 0.71094 0.14062 1.1875 0.42188 1.4375s0.83594 0.375 1.6719 0.375h2.5156v3.5h-4.1875c-1.9375 0-3.3125-0.39844-4.125-1.2031-0.80469-0.8125-1.2031-2.1797-1.2031-4.1094v-6.5h-2.4219v-3.5h2.4219v-4.3438z"/>
  </symbol>
  <symbol id="j" overflow="visible">
   <path d="m12.766-13.078v-8.2031h4.9219v21.281h-4.9219v-2.2188c-0.66797 0.90625-1.4062 1.5703-2.2188 1.9844s-1.7578 0.625-2.8281 0.625c-1.8867 0-3.4336-0.75-4.6406-2.25-1.2109-1.5-1.8125-3.4258-1.8125-5.7812 0-2.3633 0.60156-4.2969 1.8125-5.7969 1.207-1.5 2.7539-2.25 4.6406-2.25 1.0625 0 2 0.21484 2.8125 0.64062 0.82031 0.42969 1.5664 1.0859 2.2344 1.9688zm-3.2188 9.9219c1.0391 0 1.8359-0.37891 2.3906-1.1406 0.55078-0.76953 0.82812-1.8828 0.82812-3.3438 0-1.457-0.27734-2.5664-0.82812-3.3281-0.55469-0.76953-1.3516-1.1562-2.3906-1.1562-1.043 0-1.8398 0.38672-2.3906 1.1562-0.55469 0.76172-0.82812 1.8711-0.82812 3.3281 0 1.4609 0.27344 2.5742 0.82812 3.3438 0.55078 0.76172 1.3477 1.1406 2.3906 1.1406z"/>
  </symbol>
  <symbol id="i" overflow="visible">
   <path d="m10.5-3.1562c1.0508 0 1.8516-0.37891 2.4062-1.1406 0.55078-0.76953 0.82812-1.8828 0.82812-3.3438 0-1.457-0.27734-2.5664-0.82812-3.3281-0.55469-0.76953-1.3555-1.1562-2.4062-1.1562-1.0547 0-1.8594 0.38672-2.4219 1.1562-0.55469 0.77344-0.82812 1.8828-0.82812 3.3281 0 1.4492 0.27344 2.5586 0.82812 3.3281 0.5625 0.77344 1.3672 1.1562 2.4219 1.1562zm-3.25-9.9219c0.67578-0.88281 1.4219-1.5391 2.2344-1.9688 0.82031-0.42578 1.7656-0.64062 2.8281-0.64062 1.8945 0 3.4453 0.75 4.6562 2.25 1.207 1.5 1.8125 3.4336 1.8125 5.7969 0 2.3555-0.60547 4.2812-1.8125 5.7812-1.2109 1.5-2.7617 2.25-4.6562 2.25-1.0625 0-2.0078-0.21094-2.8281-0.625-0.8125-0.42578-1.5586-1.0859-2.2344-1.9844v2.2188h-4.8906v-21.281h4.8906z"/>
  </symbol>
  <symbol id="h" overflow="visible">
   <path d="m0.34375-15.312h4.8906l4.125 10.391 3.5-10.391h4.8906l-6.4375 16.766c-0.64844 1.6953-1.4023 2.8828-2.2656 3.5625-0.86719 0.6875-2 1.0312-3.4062 1.0312h-2.8438v-3.2188h1.5312c0.83203 0 1.4375-0.13672 1.8125-0.40625 0.38281-0.26172 0.67969-0.73047 0.89062-1.4062l0.14062-0.42188z"/>
  </symbol>
  <symbol id="g" overflow="visible">
   <path d="m14.312-14.828v3.7188c-1.043-0.4375-2.0547-0.76562-3.0312-0.98438-0.98047-0.21875-1.9023-0.32812-2.7656-0.32812-0.92969 0-1.6211 0.11719-2.0781 0.34375-0.44922 0.23047-0.67188 0.58984-0.67188 1.0781 0 0.38672 0.17188 0.68359 0.51562 0.89062 0.34375 0.21094 0.95703 0.36719 1.8438 0.46875l0.85938 0.125c2.5078 0.32422 4.1953 0.85156 5.0625 1.5781 0.86328 0.73047 1.2969 1.8711 1.2969 3.4219 0 1.6367-0.60547 2.8672-1.8125 3.6875-1.1992 0.8125-2.9922 1.2188-5.375 1.2188-1.0234 0-2.0742-0.078125-3.1562-0.23438-1.0742-0.15625-2.1797-0.39453-3.3125-0.71875v-3.7188c0.96875 0.48047 1.9609 0.83984 2.9844 1.0781 1.0312 0.23047 2.0781 0.34375 3.1406 0.34375 0.95703 0 1.6758-0.12891 2.1562-0.39062 0.47656-0.26953 0.71875-0.66406 0.71875-1.1875 0-0.4375-0.16797-0.75781-0.5-0.96875-0.33594-0.21875-0.99609-0.38281-1.9844-0.5l-0.85938-0.10938c-2.1797-0.26953-3.7031-0.77344-4.5781-1.5156-0.875-0.73828-1.3125-1.8594-1.3125-3.3594 0-1.625 0.55078-2.8281 1.6562-3.6094 1.1133-0.78906 2.8203-1.1875 5.125-1.1875 0.89453 0 1.8359 0.074219 2.8281 0.21875 1 0.13672 2.082 0.35156 3.25 0.64062z"/>
  </symbol>
  <symbol id="f" overflow="visible">
   <path d="m17.75-9.3281v9.3281h-4.9219v-7.1094c0-1.3438-0.03125-2.2656-0.09375-2.7656s-0.16797-0.86719-0.3125-1.1094c-0.1875-0.3125-0.44922-0.55469-0.78125-0.73438-0.32422-0.17578-0.69531-0.26562-1.1094-0.26562-1.0234 0-1.8242 0.39844-2.4062 1.1875-0.58594 0.78125-0.875 1.8711-0.875 3.2656v7.5312h-4.8906v-21.281h4.8906v8.2031c0.73828-0.88281 1.5195-1.5391 2.3438-1.9688 0.83203-0.42578 1.75-0.64062 2.75-0.64062 1.7695 0 3.1133 0.54688 4.0312 1.6406 0.91406 1.0859 1.375 2.6562 1.375 4.7188z"/>
  </symbol>
  <symbol id="u" overflow="visible">
   <path d="m2.3594-15.312h4.8906v15.312h-4.8906zm0-5.9688h4.8906v4h-4.8906z"/>
  </symbol>
  <symbol id="t" overflow="visible">
   <path d="m2.3594-21.281h4.8906v21.281h-4.8906z"/>
  </symbol>
  <symbol id="s" overflow="visible">
   <path d="m7.25-2.2188v8.0469h-4.8906v-21.141h4.8906v2.2344c0.67578-0.88281 1.4219-1.5391 2.2344-1.9688 0.82031-0.42578 1.7656-0.64062 2.8281-0.64062 1.8945 0 3.4453 0.75 4.6562 2.25 1.207 1.5 1.8125 3.4336 1.8125 5.7969 0 2.3555-0.60547 4.2812-1.8125 5.7812-1.2109 1.5-2.7617 2.25-4.6562 2.25-1.0625 0-2.0078-0.21094-2.8281-0.625-0.8125-0.42578-1.5586-1.0859-2.2344-1.9844zm3.25-9.9062c-1.0547 0-1.8594 0.38672-2.4219 1.1562-0.55469 0.77344-0.82812 1.8828-0.82812 3.3281 0 1.4492 0.27344 2.5586 0.82812 3.3281 0.5625 0.77344 1.3672 1.1562 2.4219 1.1562 1.0508 0 1.8516-0.37891 2.4062-1.1406 0.55078-0.76953 0.82812-1.8828 0.82812-3.3438 0-1.457-0.27734-2.5664-0.82812-3.3281-0.55469-0.76953-1.3555-1.1562-2.4062-1.1562z"/>
  </symbol>
  <symbol id="r" overflow="visible">
   <path d="m12.422-21.281v3.2188h-2.7031c-0.6875 0-1.1719 0.125-1.4531 0.375-0.27344 0.25-0.40625 0.6875-0.40625 1.3125v1.0625h4.1875v3.5h-4.1875v11.812h-4.8906v-11.812h-2.4375v-3.5h2.4375v-1.0625c0-1.6641 0.46094-2.8984 1.3906-3.7031 0.92578-0.80078 2.3672-1.2031 4.3281-1.2031z"/>
  </symbol>
  <symbol id="d" overflow="visible">
   <path d="m9.6406-12.188c-1.0859 0-1.9141 0.39062-2.4844 1.1719-0.57422 0.78125-0.85938 1.9062-0.85938 3.375s0.28516 2.5938 0.85938 3.375c0.57031 0.77344 1.3984 1.1562 2.4844 1.1562 1.0625 0 1.875-0.38281 2.4375-1.1562 0.57031-0.78125 0.85938-1.9062 0.85938-3.375s-0.28906-2.5938-0.85938-3.375c-0.5625-0.78125-1.375-1.1719-2.4375-1.1719zm0-3.5c2.6328 0 4.6914 0.71484 6.1719 2.1406 1.4766 1.418 2.2188 3.3867 2.2188 5.9062 0 2.5117-0.74219 4.4805-2.2188 5.9062-1.4805 1.418-3.5391 2.125-6.1719 2.125-2.6484 0-4.7148-0.70703-6.2031-2.125-1.4922-1.4258-2.2344-3.3945-2.2344-5.9062 0-2.5195 0.74219-4.4883 2.2344-5.9062 1.4883-1.4258 3.5547-2.1406 6.2031-2.1406z"/>
  </symbol>
  <symbol id="q" overflow="visible">
   <path d="m16.547-12.766c0.61328-0.94531 1.3477-1.6719 2.2031-2.1719 0.85156-0.5 1.7891-0.75 2.8125-0.75 1.7578 0 3.0977 0.54688 4.0156 1.6406 0.92578 1.0859 1.3906 2.6562 1.3906 4.7188v9.3281h-4.9219v-7.9844-0.35938c0.007813-0.13281 0.015625-0.32031 0.015625-0.5625 0-1.082-0.16406-1.8633-0.48438-2.3438-0.3125-0.48828-0.82422-0.73438-1.5312-0.73438-0.92969 0-1.6484 0.38672-2.1562 1.1562-0.51172 0.76172-0.77344 1.8672-0.78125 3.3125v7.5156h-4.9219v-7.9844c0-1.6953-0.14844-2.7852-0.4375-3.2656-0.29297-0.48828-0.8125-0.73438-1.5625-0.73438-0.9375 0-1.6641 0.38672-2.1719 1.1562-0.51172 0.76172-0.76562 1.8594-0.76562 3.2969v7.5312h-4.9219v-15.312h4.9219v2.2344c0.60156-0.86328 1.2891-1.5156 2.0625-1.9531 0.78125-0.4375 1.6406-0.65625 2.5781-0.65625 1.0625 0 2 0.25781 2.8125 0.76562 0.8125 0.51172 1.4258 1.2305 1.8438 2.1562z"/>
  </symbol>
  <symbol id="p" overflow="visible">
   <path d="m2.5781-20.406h5.875l7.4219 14v-14h4.9844v20.406h-5.875l-7.4219-14v14h-4.9844z"/>
  </symbol>
  <symbol id="o" overflow="visible">
   <path d="m2.1875-5.9688v-9.3438h4.9219v1.5312c0 0.83594-0.007813 1.875-0.015625 3.125-0.011719 1.25-0.015625 2.0859-0.015625 2.5 0 1.2422 0.03125 2.1328 0.09375 2.6719 0.070313 0.54297 0.17969 0.93359 0.32812 1.1719 0.20703 0.32422 0.47266 0.57422 0.79688 0.75 0.32031 0.16797 0.69141 0.25 1.1094 0.25 1.0195 0 1.8203-0.39062 2.4062-1.1719 0.58203-0.78125 0.875-1.8672 0.875-3.2656v-7.5625h4.8906v15.312h-4.8906v-2.2188c-0.74219 0.89844-1.5234 1.5586-2.3438 1.9844-0.82422 0.41406-1.7344 0.625-2.7344 0.625-1.7617 0-3.1055-0.53906-4.0312-1.625-0.92969-1.082-1.3906-2.6602-1.3906-4.7344z"/>
  </symbol>
  <symbol id="n" overflow="visible">
   <path d="m17.75-9.3281v9.3281h-4.9219v-7.1406c0-1.3203-0.03125-2.2344-0.09375-2.7344s-0.16797-0.86719-0.3125-1.1094c-0.1875-0.3125-0.44922-0.55469-0.78125-0.73438-0.32422-0.17578-0.69531-0.26562-1.1094-0.26562-1.0234 0-1.8242 0.39844-2.4062 1.1875-0.58594 0.78125-0.875 1.8711-0.875 3.2656v7.5312h-4.8906v-15.312h4.8906v2.2344c0.73828-0.88281 1.5195-1.5391 2.3438-1.9688 0.83203-0.42578 1.75-0.64062 2.75-0.64062 1.7695 0 3.1133 0.54688 4.0312 1.6406 0.91406 1.0859 1.375 2.6562 1.375 4.7188z"/>
  </symbol>
  <symbol id="m" overflow="visible">
   <path d="m2.5781-20.406h8.7344c2.5938 0 4.582 0.57812 5.9688 1.7344 1.3945 1.1484 2.0938 2.7891 2.0938 4.9219 0 2.1367-0.69922 3.7812-2.0938 4.9375-1.3867 1.1562-3.375 1.7344-5.9688 1.7344h-3.4844v7.0781h-5.25zm5.25 3.8125v5.7031h2.9219c1.0195 0 1.8047-0.25 2.3594-0.75 0.5625-0.5 0.84375-1.2031 0.84375-2.1094 0-0.91406-0.28125-1.6172-0.84375-2.1094-0.55469-0.48828-1.3398-0.73438-2.3594-0.73438z"/>
  </symbol>
  <symbol id="l" overflow="visible">
   <path d="m2.3594-15.312h4.8906v15.031c0 2.0508-0.49609 3.6172-1.4844 4.7031-0.98047 1.082-2.4062 1.625-4.2812 1.625h-2.4219v-3.2188h0.85938c0.92578 0 1.5625-0.21094 1.9062-0.625 0.35156-0.41797 0.53125-1.2461 0.53125-2.4844zm0-5.9688h4.8906v4h-4.8906z"/>
  </symbol>
  <symbol id="k" overflow="visible">
   <path d="m14.719-14.828v3.9844c-0.65625-0.45703-1.3242-0.79688-2-1.0156-0.66797-0.21875-1.3594-0.32812-2.0781-0.32812-1.3672 0-2.4336 0.40234-3.2031 1.2031-0.76172 0.79297-1.1406 1.9062-1.1406 3.3438 0 1.4297 0.37891 2.543 1.1406 3.3438 0.76953 0.79297 1.8359 1.1875 3.2031 1.1875 0.75781 0 1.4844-0.10938 2.1719-0.32812 0.6875-0.22656 1.3203-0.56641 1.9062-1.0156v4c-0.76172 0.28125-1.5391 0.48828-2.3281 0.625-0.78125 0.14453-1.5742 0.21875-2.375 0.21875-2.7617 0-4.9219-0.70703-6.4844-2.125-1.5547-1.4141-2.3281-3.3828-2.3281-5.9062 0-2.5312 0.77344-4.5039 2.3281-5.9219 1.5625-1.4141 3.7227-2.125 6.4844-2.125 0.80078 0 1.5938 0.074219 2.375 0.21875 0.78125 0.13672 1.5547 0.35156 2.3281 0.64062z"/>
  </symbol>
 </defs>
 <g>
  <path d="m615.66 498.23c-6.0469-6.7773-8.793-15.961-11.145-24.527-2.4062-8.8477-4.1445-17.863-7.2227-26.543-2.6875-7.6172-6.3828-14.953-11.93-20.945-5.2656-5.6562-11.312-11.031-17.863-15.176-6.6094-4.1445-14-6.4414-21.785-6.3828 0.78516-0.83984 1.5664-1.7344 2.2969-2.5742 3.1367-3.6406 5.7695-8.0625 4.7617-13.047-0.39062-2.1289-1.5664-3.8086-3.0781-5.207-1.457-1.3438-3.6953-2.7422-3.1367-4.9844 0.28125-1.1211 0.72656-2.1836 0.83984-3.3594 0.11328-1.1211 0-2.2969-0.22266-3.4141-0.55859-2.4062-1.8477-4.6484-3.3047-6.6094-3.0234-4.0898-6.9453-7.5586-10.754-10.922-5.0977-4.4258-10.527-8.457-16.184-12.098 3.1367-1.625 5.543-4.3125 7.6719-7.2227 3.1914-4.3672 6.3281-8.8477 9.2969-13.383 2.9102-4.4805 4.4258-9.4062 5.9922-14.449 1.6797-5.3203 3.4141-10.527 3.3594-16.184 0-4.7031-1.2305-9.1836-4.3125-12.824-2.8555-3.3594-6.7773-5.6562-10.977-7-2.4062-0.78516-4.8711-1.2305-7.3906-1.5117-1.2891-0.16797-2.5742-0.22266-3.9219-0.28125-1.2891-0.054688-3.0781 0.22266-4.3125-0.22266-1.0078-0.39062-1.1211-1.5117-1.625-2.4062-0.44922-0.83984-1.0625-1.625-1.793-2.2383-1.3984-1.2891-3.2461-2.1289-5.0977-2.5195-5.375-1.2305-10.414 0.44922-14.953 3.2461 0.39062-0.39062 0.78516-0.72656 1.1758-1.1211 3.4727-3.2461 7.7852-5.207 12.098-7.0547 8.9023-3.8633 17.977-7.5586 26.266-12.711 7.3359-4.5938 14.055-10.359 18.816-17.695 5.1523-7.9531 6.9453-16.969 6.2148-26.375-0.16797-2.0703-0.50391-4.1992-0.83984-6.2734 0.054687-0.33594 0-0.67188-0.16797-0.95312-0.55859-3.3047-1.0625-6.6641-1.0625-10.023 0-5.7695 2.8555-10.473 6.1055-15.008 0.72656-1.0078-0.67188-2.3516-1.6797-1.6797-9.4648 6.1055-21.223 3.2461-31.695 2.6328-5.6562-0.33594-11.312 0-16.633 2.1289-4.6484 1.9023-8.9609 4.7031-12.824 7.8945-7.9531 6.5508-13.328 15.176-15.457 25.312-2.2969 10.922-3.1914 22.902 0.44922 33.602 1.9609 5.8242 5.2656 11.594 5.3203 17.863 0 2.4648-0.55859 4.8164-1.457 7.0547-1.2891 2.1289-2.5742 4.3125-3.8086 6.4414 0.054688-0.95312 0.16797-1.9023 0.22266-2.8555 0.44922-7.2812 0.39062-14.559-0.50391-21.785-0.44922-3.5273-1.0078-7.0547-1.793-10.527-0.72656-3.1914-1.5117-6.6094-3.1914-9.4648-2.9102-4.9297-8.5117-6.4961-12.879-9.6875-5.1523-3.8086-4.9297-10.754-8.8477-15.457-4.0898-4.8711-10.473-6.9453-16.633-7.6172-3.5273-0.39063-7.168-0.50391-10.754-0.39063-3.3047 0.11328-6.7188 0.44922-9.8555 1.5664-2.5742 0.89453-4.7617 2.3516-6.832 3.9766-1.8477-4.7031-5.207-8.3438-9.2383-11.367-4.8711-3.6953-10.137-6.6641-16.016-8.3984-3.0234-0.89453-6.1055-1.457-9.2383-1.793-1.5117-0.16797-3.2461-0.11328-4.5938-1.0078-1.3438-0.89453-2.3516-2.2383-3.5859-3.2461-4.2578-3.5273-9.5195-5.6562-14.953-6.4961-5.4883-0.83984-10.863-0.33594-16.016 1.1758 14.055-14.113 27.441-29.793 32.594-49.449 2.6328-10.023 3.4727-21.559-1.9609-30.801-2.6875-4.5938-6.3828-8.5664-9.9102-12.543-3.8633-4.3125-7.8945-8.5117-11.984-12.602-4.3125-4.2578-8.3984-8.457-9.8555-14.504-1.3438-5.8242-0.55859-11.984 0.22266-17.863 0.16797-1.2305-1.7344-1.625-2.2969-0.61719-3.4141 6.1055-7.0547 12.152-11.594 17.586-4.5352 5.4883-9.9102 9.8008-16.129 13.215-6.2734 3.4141-12.488 6.6094-18.145 10.922-5.4336 4.1445-10.305 8.9023-14.449 14.391-8.3984 11.145-13.273 25.312-11.871 39.312 1.2891 13.047 7.8398 25.199 17.977 33.543 10.414 8.5664 24.246 14 31.305 26.039h0.054687c-5.2656 5.4883-9.5742 11.816-11.762 18.93-1.2891-0.61719-2.7422-0.89453-4.2578-0.89453-3.0234-0.054687-6.0469 0.22266-9.0703 0.33594-6.5508 0.28125-13.105 0.39062-19.656 0.89453-5.4883 0.39062-10.863 1.3984-15.848 3.8086-4.4258 2.1289-8.3984 5.207-11.535 8.9023-3.3594 3.9219-5.4336 8.3438-7.0547 13.215-1.8477 5.4883-5.4336 10.137-7.168 15.625-3.1914 9.9688-1.8477 20.887 2.1836 30.406 1.1211 2.6875 2.5195 5.3203 4.0898 7.7852 0.83984 1.2891 1.8477 2.5195 2.4062 3.9219 0.22266 0.61719 0.33594 1.3438 0.44922 2.0156-5.543-0.44922-10.922-2.2969-16.52-2.4062-5.6562-0.11328-10.977 2.4648-15.566 5.6016-4.5938 3.0781-8.793 7.168-11.312 12.152-1.1758 2.2969-1.793 4.8164-1.457 7.3906 0.33594 2.5195 1.457 4.8164 2.5195 7.1133 1.0078 2.1836 2.1836 4.4258 2.4062 6.832 0.33594 3.1914-1.6797 5.543-3.3594 7.9531-3.4727 5.0391-5.9922 10.359-3.6953 16.465 2.4648 6.5508 5.2656 12.992 7.8945 19.434 1.2305 3.0781 2.5195 6.1055 4.1445 9.0156 1.6797 2.9688 3.5859 5.7695 5.375 8.625 1.625 2.5742 3.1914 5.207 4.9844 7.7266-3.0234 0.11328-6.0469 0.16797-9.0703 0.22266-11.258-12.434-24.922-22.793-40.602-28.895-7.8398-3.0234-17.246-5.9922-25.594-3.5273-4.4258 1.2891-7.9531 4.2578-11.145 7.3906-3.3594 3.3047-6.3828 6.8867-9.5742 10.305-6.7188 7.2227-15.121 14.504-25.648 14.055-1.5664-0.054687-1.5664 2.4062 0 2.4648h0.28125s0.11328 0.054688 0.16797 0.11328c8.3984 3.4727 14.84 10.246 20.887 16.801 6.2734 6.7188 12.543 13.383 20.609 18.031 8.3438 4.8164 18.48 8.2305 27.777 4.4258 8.5117-3.4727 16.465-9.2969 23.352-15.344 7.7852-6.7773 14.504-14.672 19.992-23.352 3.2461-0.11328 6.4414-0.16797 9.6875-0.22266 0.28125 0 0.44922-0.11328 0.67188-0.22266 1.3438 1.5664 2.8008 2.6328 4.9844 3.0234 1.8477 0.33594 3.7539 0.39063 5.6562 0.33594-0.22266 0.11328-0.50391 0.16797-0.72656 0.28125-6.2148 2.5742-12.207 5.7695-17.809 9.5195-4.7617 3.1367-10.754 7.1133-10.922 13.441-0.054687 2.3516 0.67188 4.8711 2.4648 6.4961 2.1836 2.0156 5.0391 1.5664 7.6172 2.7422 1.625 0.72656 2.0156 2.3516 2.4062 3.9219 0.39063 1.3984 0.83984 2.7422 1.5117 4.0312 1.2305 2.4062 3.0781 4.5352 5.207 6.2148 4.9297 3.9766 11.312 5.9375 17.641 5.4883 5.8242-0.44922 11.426-2.1289 17.023-3.7539-2.4062 3.1367-4.5352 6.4961-6.3281 10.137-3.7539 7.7852-6.2734 17.414-4.5352 26.039 0.72656 3.4727 2.4062 7.2812 5.6016 9.0703 3.6406 2.0703 7.5586 0.67188 11.199-0.44922 1.9023-0.61719 4.1992-1.2891 6.1602-0.39063 2.1836 1.0078 3.5273 3.6953 4.9297 5.543 3.0234 4.0898 6.1055 8.1758 9.6328 11.871 6.4961 6.832 14.785 12.488 24.359 13.609 5.207 0.61719 10.473-0.33594 15.512-1.7344 5.1523-1.457 10.359-3.1914 15.289-5.375 9.2383-4.0312 16.52-10.863 23.184-18.258 13.719-15.289 25.594-33.488 27.328-54.434 0.22266-2.6328 0.22266-5.2656 0.11328-7.8945 0-0.11328 0-0.16797-0.054688-0.22266 2.2969-0.72656 4.5352-1.5117 6.7188-2.5195 3.4141-1.625 6.6094-3.5859 9.6328-5.9375 1.0078-0.78516 1.9609-1.5664 2.9688-2.3516 1.9023 4.7031 2.6328 9.8555 1.9609 14.895-0.72656 5.4883-3.0781 10.641-5.6016 15.512-2.6328 5.0977-5.375 10.191-8.0078 15.289-2.5195 4.7617-5.4883 9.4648-7.1133 14.617-1.5664 4.8164-1.0078 9.5742 1.5664 13.945 2.4648 4.2578 5.9922 7.9531 9.2969 11.594 6.7188 7.4492 14.391 14.449 23.574 18.762 9.0156 4.1992 19.375 5.7109 28.953 2.5742 4.8164-1.625 9.1289-4.1992 13.215-7.168 2.0156-1.457 4.3125-2.8008 6.2148-0.50391 1.2305 1.457 2.0703 3.1914 3.8086 4.1992 1.9609 1.0625 4.2578 1.0078 6.3828 0.72656 2.5742-0.33594 5.1523-0.83984 7.6719-1.457 5.0391-1.2305 9.4062-3.6406 13.215-7.2227 7.0547-6.5508 12.543-15.062 15.68-24.191 3.1914-9.2969 3.8086-19.434 1.5664-29.008-1.1211-4.7617-2.9688-9.4062-5.4883-13.664-2.4062-4.0312-5.7109-7.5586-7.7852-11.871-1.0625-2.1836-1.6797-4.5352-1.2891-6.9453v-0.44922c3.8633 2.3516 7.3906 5.7109 9.8008 9.5195 1.3438 2.1289 2.0703 4.4805 2.8555 6.8867 0.89453 2.6875 1.6797 5.4336 2.5195 8.1758 3.0234 10.023 6.2148 20.328 12.434 28.895 2.6875 3.6953 5.8789 7.0547 9.6328 9.7422 4.0898 2.8555 8.6797 4.5938 13.551 5.543 11.312 2.1836 22.961 3.5273 34.215 0.33594 5.9375-1.6797 11.312-4.9844 17.305-6.2734 6.6094-1.457 12.879 1.1211 18.816 3.6953 1.2305 0.55859 2.4648-0.83984 1.5117-1.9609zm-72.016-91c7.6172-0.50391 14.84 1.3984 21.449 5.2656 6.4961 3.8086 12.152 9.0703 17.473 14.391 12.434 12.434 15.121 30.633 19.434 46.871 1.625 6.0469 3.4727 12.32 6.3828 17.977-4.4258-4.1992-9.6875-7.3906-15.008-10.414-3.5859-2.0703-7.168-4.0898-10.586-6.3828-3.8633-2.6328-7.5039-5.6016-11.199-8.5117-13.887-10.977-29.23-19.992-45.922-26.039-4.5352-1.625-9.1289-2.9688-13.719-4.2578-3.8633-1.0625-7.7266-2.1289-11.48-3.5859 8.625-1.793 16.855-5.3203 24.246-10.078 6.7188-4.3125 12.992-9.5195 18.594-15.289h0.28125zm-7.3906-46.367c3.4141 3.3047 7.5039 7.0547 8.5664 11.93 0.22266 1.1211 0.28125 2.2969 0 3.4141-0.28125 1.2305-0.89453 2.3516-0.89453 3.5859 0 1.7344 1.1211 3.1914 2.3516 4.3125 1.457 1.3984 3.1367 2.5195 3.8086 4.5352 0.78516 2.2969 0.39062 4.8711-0.61719 7-2.0703 4.4258-6.1602 8.0625-9.5742 11.48-3.5859 3.5273-7.3359 6.832-11.367 9.8008-8.1758 6.0469-17.359 10.695-27.273 12.992-10.414 2.4062-20.887 1.625-31.078-1.3984-10.473-3.1367-20.496-7.6719-30.574-11.816-5.1523-2.1289-10.359-4.1992-15.512-6.3281-4.0898-1.6797-8.3984-3.3594-11.816-6.1602-1.5117-1.2305-2.7422-2.7422-3.6953-4.4258 1.5117-1.0625 3.0234-2.1289 4.4805-3.1914 3.0781-2.2969 6.1055-4.6484 8.9023-7.2812 5.375-4.9844 9.9102-10.809 13.16-17.414 3.4727-7.0547 5.4336-14.727 5.8789-22.566 1.2891 0 2.6328 0.11328 3.9219 0.11328 2.4648 0.054688 5.1523 0.44922 7.6172 0.22266 1.6797-0.16797 2.9688-1.2891 3.0781-3.0234 0.28125-4.3125-5.6016-5.543-8.793-6.3828-0.33594-0.11328-0.67188-0.16797-1.0078-0.22266 7.2812-3.7539 15.23-6.4961 23.297-8.0625 4.9844-0.95312 10.078-1.3984 15.121-0.83984 5.375 0.55859 10.527 2.5195 15.457 4.7617 8.9023 4.0898 17.359 9.2383 25.145 15.176 3.9766 3.0781 7.7852 6.3281 11.367 9.8555zm-243.43 16.406c-3.9766-3.8086-7.6719-7.8945-10.414-12.656 9.4062-2.8008 17.809-8.625 25.031-15.289 3.3594-3.1367 6.6641-7.1133 10.754-9.5195 4.3672 0.72656 8.0078 3.1367 11.258 5.9922 3.4141 3.0234 6.6094 6.3281 9.7422 9.6875 3.0234 3.2461 6.2734 6.0469 10.414 7.8398 3.7539 1.625 7.7852 2.4648 11.871 2.8555 2.6328 0.22266 5.2656 0.11328 7.8398 0.55859 2.2383 0.33594 4.2578 1.1758 6.1602 2.3516l-0.33594 0.39062-9.5195 10.359c-3.1914 3.4727-6.6641 6.8867-9.6328 10.586-1.1211 1.3984-1.8477 2.8555-2.0703 4.6484-0.16797 1.3984-0.33594 3.3047 0.11328 4.8164-5.6016-0.11328-11.145-0.44922-16.742-1.0625-5.9922-0.67188-12.098-1.457-17.809-3.3594-10.305-3.4727-18.871-10.754-26.656-18.145zm-51.184-73.191c5.7109-3.0234 12.207-4.1992 18.594-3.6953 1.0078 3.4141 2.0703 6.7773 3.1367 10.137 1.5664 4.8711 3.1367 9.8008 6.7773 13.551 3.8633 3.9766 8.9609 6.7773 13.887 9.1836 4.0312 1.9609 8.2305 3.6953 12.375 5.3203-4.9844 1.9023-9.6875 4.4805-14.055 7.5039-1.2305 0.83984-2.4062 1.7344-3.5859 2.5742-2.9102-0.55859-5.8242-0.95312-8.6797-1.8477-2.7422-0.83984-5.375-2.0156-7.8398-3.4727-4.9297-2.9102-9.1289-6.832-12.32-11.594-3.2461-4.8164-5.543-10.246-8.9609-14.953-0.78516-1.1211-1.625-2.1836-2.5742-3.1914-1.0078-1.1211-2.3516-2.1289-2.9688-3.5273-0.78516-1.7344 1.0625-2.8008 2.2969-3.6406 1.2305-0.89453 2.5195-1.6797 3.8633-2.3516zm49.168-63.391c5.0977 1.1758 10.078 4.1992 14.449 7.168-1.2891 2.7422-1.9023 5.6562-2.1836 8.5664-0.11328 0.11328-0.22266 0.22266-0.33594 0.33594-3.8086 6.1602-5.7695 13.383-5.7109 20.609 0 3.5859 0.55859 7.168 1.5664 10.586 0.83984 2.9688 2.0156 6.4961 4.3672 8.6797-2.4648 1.625-4.7031 3.6406-6.4961 6.1055-4.0312 5.4883-3.4727 12.656-1.625 18.871 1.793 5.9922 5.4883 11.031 10.586 14.504-1.793 0.28125-3.5273 0.72656-5.3203 1.2305-8.3984-3.3047-17.137-6.5508-24.473-11.93-2.0703-1.5117-4.0312-3.1914-5.543-5.3203-1.3984-2.0156-2.2969-4.3125-3.1367-6.6094-1.6797-4.8711-3.1914-9.7422-4.5938-14.672-2.9102-10.246-5.0391-21-3.5859-31.695 0.33594-2.5195 0.89453-5.0977 2.0156-7.4492 1.0625-2.1836 2.5195-4.1445 4.0898-5.9922 2.9102-3.4141 6.2148-6.4961 10.023-8.9023 4.5352-2.8555 10.473-5.3203 15.902-4.0312zm101.47-3.2461c-1.0625 0.16797-1.9609 1.0625-2.4648 2.1289-0.50391 1.0625-0.67188 2.2383-0.78516 3.4141-1.2891 0.16797-2.4648 0.78516-3.5859 1.5664-1.625 1.0625-3.4141 1.8477-4.9297 3.0234-0.78516 0.55859-1.5117 1.2305-2.1836 1.8477-3.1914-5.7109-9.8008-8.8477-15.848-10.641-1.6797-0.50391-3.4141-0.89453-5.1523-1.0625 0-0.11328-0.054687-0.28125-0.16797-0.39062-2.3516-3.8086-5.543-7.4492-9.5195-9.6875 3.0781-3.0781 7.2227-4.5938 11.258-5.9922 2.4648-0.83984 4.9844-1.625 7.5586-1.793 2.5195-0.16797 4.9297 0.39062 7.2227 1.3438 8.0078 3.3047 14.559 8.625 18.535 16.238zm49.84 104.27c1.9023 0.33594 3.8633 0.78516 5.7109 1.3438 1.457 0.44922 4.6484 1.0625 5.2656 2.7422 0.39062 1.2305-0.50391 1.3438-1.5117 1.3984-1.0078 0-2.0156-0.054688-3.0234-0.11328-2.1836-0.054688-4.4258-0.16797-6.6094-0.22266-4.1992-0.11328-8.3984-0.28125-12.602-0.39062-3.7539-0.11328-7.2812 0.28125-10.586 2.0156-6.2148 3.3047-11.09 9.1836-15.398 14.559-4.5352 5.6562-8.7344 11.535-14 16.52-5.6016 5.3203-12.039 9.5742-18.594 13.551-3.3047 1.9609-6.6094 4.2578-10.137 5.7695-0.95312 0.39062-1.9609 0.72656-3.0234 0.72656-1.3438 0-1.2305-0.72656-1.2891-1.8477-0.11328-2.2969 0.28125-4.1992 1.793-5.9922 2.6875-3.1914 5.6562-6.2148 8.457-9.2969 2.9102-3.1367 5.7695-6.3281 8.6797-9.4648 6.2148-6.7773 12.098-14.281 19.77-19.434 3.6406-2.4648 7.4492-4.7031 11.367-6.6641 3.9219-1.9609 8.0078-3.6406 11.871-5.7109 7.9531-0.44922 16.016-0.83984 23.855 0.50391zm-132.95-5.9922s-0.16797-0.22266-0.33594-0.28125c-4.9844-2.7422-9.0156-7-11.031-12.375-2.0703-5.4336-3.3594-12.77 0-17.922 6.4414-10.023 20.215-12.488 31.191-12.656 3.4141-0.054687 6.832 0.33594 9.9688 1.793 2.6328 1.2305 4.8711 3.0234 6.9453 5.0391-1.2891 1.1758-2.5195 2.4648-3.6953 3.7539-4.8711 5.4336-9.6875 10.977-14.336 16.574-4.1445 4.9297-8.0078 10.246-9.8008 16.52-2.9688-0.50391-5.8789-0.67188-8.8477-0.44922zm-8.5117-49.055c-0.83984-3.1367-1.2891-6.4414-1.2305-9.6875 0-5.207 1.1758-10.359 3.3594-15.121 0 3.0781 0.33594 6.1602 1.0078 9.1289 1.6797 7.5039 5.7695 14.391 11.984 18.871 0.11328 0.50391 0.28125 1.0078 0.39062 1.5117-1.7344 0.33594-3.4727 0.78516-5.1523 1.3438-2.0703 0.67188-4.1445 1.5664-6.0469 2.6328-2.4648-2.0156-3.5273-5.7695-4.3672-8.7344zm61.098-45.473c5.6016 1.625 11.762 4.4805 14.559 9.8555 0.054688 0.11328 0.16797 0.16797 0.22266 0.28125-0.11328 0.16797-0.22266 0.28125-0.33594 0.44922-0.44922 0.95312-0.55859 1.9609-0.72656 2.9688-0.11328 0.67188-0.22266 1.2891-0.28125 1.9609-1.5117-2.1836-3.5273-4.1992-5.8789-4.9844-0.67187-0.22266-1.3984-0.28125-2.0703-0.28125-3.5273-4.5352-9.1836-6.6641-14.391-8.625-1.625-0.61719-3.2461-1.0078-4.8164-1.2305 1.2305-0.55859 2.5742-1.0078 3.9219-1.2891 3.2461-0.67188 6.6641-0.11328 9.8008 0.83984zm27.215 4.2578v1.3438 7.3359c-4.0898 0.50391-7.9531 1.9609-11.48 4.0312l0.33594-2.1836c0.11328-0.89453 0.22266-1.793 0.44922-2.6875 0.22266-0.78516 0.78516-1.2891 1.3438-1.8477 0.67188-0.61719 1.3438-1.2305 2.0703-1.793 1.3438-1.0078 2.8008-1.6797 4.1992-2.5742 0.83984-0.55859 1.9023-1.3984 2.9688-1.6797zm3.9219-5.375c0.67187 0.11328 1.5117 1.793 1.9023 2.3516 0.61719 1.0078 1.0625 2.1289 1.457 3.2461 0.72656 2.2383 1.1758 4.5938 1.5117 6.9453 0.11328 0.89453 0.16797 1.7344 0.16797 2.6328-1.9023-1.1211-4.1992-1.3984-6.4414-1.3438v-6.6094c0-0.39062-0.054688-1.5117-0.054688-2.7422v-0.61719c0.054688-2.0156 0.39062-4.0312 1.5117-3.8633zm18.312 29.566c0.55859-2.9688 1.3984-5.9375 2.4648-8.7344 0.50391-1.2891 1.0625-2.7422 2.0703-3.7539 0.72656-0.72656 1.8477-1.625 2.6328-0.50391 0.55859 0.83984 0.50391 2.2969 0.55859 3.1914 0.89453 9.2969 0.67188 18.648-0.50391 27.887-2.8008-1.625-5.8242-2.8008-9.0156-3.5859 0.89453-4.7617 1.6797-9.6328 1.793-14.504zm4.8711 19.543c4.4805 2.4062 10.473 7 10.586 12.602 0.054687 3.3047-0.95312 6.7188-1.9023 9.8555-0.95312 3.0781-2.0703 6.1055-3.1914 9.1289-2.1836 5.9922-4.2578 11.984-4.8164 18.367-3.8086 2.0156-7.8398 3.6953-11.703 5.6016-3.7539 1.9023-7.3906 4.0312-10.922 6.3828-3.4141 2.2969-6.4961 4.9844-9.3516 7.8398-3.1367-0.67188-5.7695-2.2969-8.5117-3.9219-2.8008-1.6797-5.6016-3.3047-8.5117-4.8164-5.7109-3.0234-11.535-5.7109-17.527-8.0625-5.9922-2.3516-12.098-4.4805-18.367-6.0469-3.0781-0.78516-6.2734-1.2891-9.4062-0.67188-0.67188 0.11328-1.2891 0.28125-1.9023 0.50391 1.625-4.9844 4.5938-9.4062 7.8945-13.441 3.9219-4.7617 8.0078-9.3516 12.039-14 3.7539-4.3125 7.5586-9.1289 12.824-11.648 2.5195-1.2305 5.4883-1.9023 8.2891-1.5117 1.3438 0.16797 2.4648 0.83984 3.7539 1.1758 1.3438 0.33594 2.5195-0.22266 3.5859-1.0078 2.1289-1.5664 3.9219-3.5859 5.9375-5.3203 2.1836-1.9023 4.7031-3.1367 7.5039-3.8086 5.4336-1.2891 11.426-1.2891 16.91-1.0625 5.7109 0.22266 11.535 1.1211 16.633 3.8633zm-48.273-35.281c1.625 0.16797 2.9688 1.457 4.0312 2.5742 1.0625 1.1211 1.9023 2.3516 2.6328 3.6953-6.1055 4.4805-10.922 10.809-14.055 17.641-1.625-0.11328-2.9688-1.1758-4.4258-1.8477-0.39063-0.16797-0.78516-0.28125-1.1758-0.44922 3.7539-4.5938 3.8086-10.863 6.3281-16.129 1.1758-2.4648 3.5859-5.7109 6.6641-5.4336zm30.07 4.4258s0.054688 0 0.11328 0.11328c0 0.83984 0 1.7344-0.054688 2.5742-8.6797-0.16797-17.473 2.0156-24.414 7.4492-3.4141 2.6875-6.1055 5.9922-8.2891 9.7422-1.9023 3.2461-3.6953 6.6094-5.4883 9.9102 1.5117-8.3438 5.9375-16.184 11.871-22.176 3.5273-3.5273 7.7266-6.4961 12.434-8.1211 3.8633-1.3438 10.695-3.0234 13.832 0.55859zm-41.105 6.3828c-0.89453 3.4727-1.793 7.168-4.3672 9.8555 0 0-0.054688 0.11328-0.11328 0.16797-0.33594-0.054687-0.61719-0.16797-0.95312-0.22266-3.3047-0.44922-6.6641 0.11328-9.7422 1.3984-1.1758 0.50391-2.2383 1.1211-3.3047 1.793-0.55859-5.1523 1.9609-10.246 5.8242-13.609 4.0312-3.5273 9.4062-5.0977 14.672-5.4336-0.83984 1.9023-1.457 3.9766-2.0156 5.9922zm-14.672-2.0703c-4.4805 4.0312-7 10.023-6.1602 16.07 0 0.28125 0.16797 0.44922 0.28125 0.61719-1.1758 1.0078-2.2383 2.0703-3.2461 3.2461-2.6875-6.832-2.4062-15.062-0.28125-21.953 1.9609-1.793 4.2578-3.2461 6.832-3.9219 3.4727-0.95312 7.3359-0.55859 10.305 1.457-2.8008 1.0625-5.4336 2.5195-7.7266 4.5352zm-10.863 22.121c-1.0625 1.5117-2.0156 3.0781-2.8555 4.7617-0.11328 0.16797-0.11328 0.33594-0.16797 0.55859-2.3516 0.054687-4.7031 0.28125-7 0.55859-0.55859 0.054688-1.1211 0.16797-1.6797 0.22266 0.83984-4.9844 2.1289-9.8555 3.9766-14.504 1.5664-3.9219 3.2461-8.0078 5.6016-11.594-1.1758 6.6641-0.67188 13.832 2.0703 19.938zm11.93-6.832c2.8555-1.0625 6.1055-1.457 9.0703-0.72656 2.5195 0.61719 4.6484 2.4648 7.168 2.9688-1.625 4.1445-2.6328 8.5117-2.7422 12.992v0.054687c-0.22266 0-0.39062 0.054688-0.61719 0.11328-3.1367 0.78516-5.8789 2.3516-8.3438 4.3672-4.3672-4.3672-9.6875-7.2227-15.961-7.6172h-0.78516c2.7422-5.1523 6.7188-9.9688 12.266-12.098zm44.352 5.2656c-2.9102 0.22266-5.8789 0.67188-8.625 1.7344-2.6328 1.0625-4.7617 2.6875-6.832 4.5938-1.0625 1.0078-2.0703 2.0156-3.1914 2.9688-0.55859 0.44922-1.1211 1.0625-1.793 1.3984-1.0625 0.50391-1.8477 0-2.8008-0.39062-1.457-0.50391-2.9102-0.67188-4.4258-0.67188 2.2969-4.1445 4.5352-8.2891 6.832-12.434 2.0703-3.6953 4.4805-7 7.7266-9.6875 6.4961-5.3203 14.953-7.3359 23.184-7.2812-0.50391 6.4414-1.5117 12.879-0.89453 19.32-3.0781 0-6.2148 0.11328-9.2969 0.39062zm-37.465-38.695c5.0391 1.457 10.809 3.6953 14.504 7.6172-1.625 0.78516-3.0234 2.0156-4.0898 3.4141-0.16797 0.22266-0.28125 0.50391-0.44922 0.72656-0.16797-0.054688-0.33594-0.11328-0.55859-0.11328-2.2969 0.11328-4.6484 0.44922-6.8867 1.0078-7.2227-6.3828-17.695-3.1914-23.465 3.4141-3.3594 3.8633-5.3203 8.5664-7.2812 13.273-1.8477 4.4258-3.3047 9.0156-4.2578 13.664-1.1758-4.5352-2.1289-9.1289-1.9609-13.832 0.22266-5.8789 2.6875-11.09 6.2148-15.734 1.625-2.1289 4.1992-3.2461 5.8242-5.375 1.6797-2.1836 3.0234-4.0898 5.4883-5.4336 2.2969-1.2305 4.8711-1.9023 7.3906-2.5195 3.1914-0.72656 6.2148-1.1211 9.4062-0.22266zm-27.887 93.574c3.4727-0.89453 7.0547-0.054687 10.473 0.83984 3.4141 0.95312 6.7773 2.0156 10.137 3.1367 7.2812 2.5195 14.391 5.543 21.281 9.0156 3.4727 1.793 6.8867 3.6406 10.246 5.6562 2.7422 1.625 5.4336 3.3047 8.5117 4.1992-1.9609 2.0703-3.8633 4.1445-5.7695 6.2734-3.6406-2.4062-7.6172-3.1367-11.984-3.3047-4.4258-0.16797-8.793-0.72656-12.992-2.2383-4.4258-1.625-7.8398-4.3672-11.031-7.7266-3.1914-3.4141-6.3828-6.7773-9.9102-9.8555-2.8008-2.4648-5.8789-4.6484-9.3516-5.8242 0.16797 0 0.28125-0.11328 0.39062-0.16797zm97.105 0.61719c1.1758-12.039 8.2305-22.625 9.7422-34.609 0.39062-3.1367-0.16797-5.9922-1.9609-8.625-1.5664-2.2383-3.5273-4.1992-5.7109-5.8242-0.22266-0.16797-0.44922-0.28125-0.61719-0.44922 0.78516-5.6562 1.2305-11.367 1.2305-17.078 0-3.0234-0.054687-5.9922-0.28125-8.9609-0.16797-2.3516 0-5.375-1.1211-7.5586-0.22266-0.39062-0.44922-0.67188-0.72656-0.95312 0.16797-1.3984 0-2.8008-0.44922-4.1445 5.9375-6.4414 16.742-4.9844 24.527-4.0312 4.5352 0.55859 9.5195 1.1211 12.77 4.5938 2.6875 2.9102 3.8633 7 4.1445 10.863 0.33594 4.8711-0.78516 9.6875-1.5117 14.449-0.83984 5.0977-0.72656 10.078-0.83984 15.23-0.22266 9.6328-4.6484 18.367-10.863 25.535-3.4727 4.0312-7.4492 7.5586-11.535 10.977-3.7539 3.0781-8.1211 5.9375-10.359 10.305-2.1289 0.054688-4.3125 0.16797-6.4414 0.28125zm-1.8477-85.062c-0.50391 0-1.0078 0.11328-1.5117 0.33594-1.6797 0.78516-2.8555 2.3516-3.6406 3.9766-0.61719 1.2305-1.1211 2.5195-1.5664 3.8633-0.22266-1.5117-0.55859-3.0781-1.0078-4.5938-1.0625-3.5273-2.7422-6.7188-4.7031-9.8008 0.67188-1.3984 1.6797-2.5195 3.1367-3.2461 0.72656-0.33594 1.5117-0.55859 2.2969-0.55859 0.95312 0 1.5664 0.33594 2.2969 1.0078 2.5195 2.4062 4.7031 5.4336 4.7031 8.9609zm-9.8008 5.3203c2.1289 8.0625 0.95312 16.633-0.61719 24.695-0.55859-0.11328-1.1211-0.22266-1.6797-0.28125-2.0156-0.28125-3.9766-0.39063-5.9922-0.50391-0.95313-9.6328 1.9023-19.207 1.0078-28.84-0.39062-4.1992-1.1211-8.7344-3.1914-12.488-0.054688-0.11328-0.16797-0.28125-0.28125-0.44922 0.50391 0.28125 1.0078 0.67187 1.3984 1.1211 1.457 1.457 2.5742 3.3594 3.6953 5.0977 2.4062 3.6406 4.5352 7.3906 5.6562 11.648zm-53.258-21.336c-0.78516 0-1.5664 0.054687-2.3516 0.22266-3.3047 0.55859-6.4961 2.0156-9.2383 3.9219-2.7422 0.44922-5.543 1.0625-8.1211 2.0703-2.4648 0.95312-4.8164 2.2383-6.6094 4.2578-1.0078 1.1758-1.7344 2.5742-2.8008 3.6953-1.0625 1.1211-2.4648 1.793-3.5859 2.8008-2.1836 1.9609-3.6953 4.7617-5.1523 7.2227-1.5117 2.6875-2.5195 5.543-2.9688 8.625-0.78516 5.207 0 10.359 1.1758 15.457-3.7539-3.4727-6.4414-7.9531-7.8945-12.824-1.0625-3.4727-1.5664-7.0547-1.625-10.641-0.11328-3.5273 0.054688-7.2812 1.0625-10.695 1.9023-6.4414 7.1133-12.098 12.602-15.793 2.9688-1.9609 6.1055-3.7539 9.2969-5.2656 3.1367-1.5117 6.4961-2.8008 10.023-2.9102 7-0.28125 12.434 4.3672 16.129 9.8555zm-74.648 113.46s0.22266-0.16797 0.33594-0.22266c5.9922-4.5352 12.77-8.625 19.992-10.922 0.16797 0 0.33594 0 0.50391-0.16797 4.9844-1.5117 10.191-2.1836 15.512-1.457-0.33594 0.22266-0.67188 0.44922-1.0078 0.67187-4.7031 3.4727-8.5117 8.0078-12.992 11.762-4.8711 4.0898-10.246 7.6719-16.184 10.078s-12.434 3.5859-18.816 2.8555c-0.89453-0.11328-1.3984 0.11328-0.83984-0.78516 0.39062-0.67188 0.89453-1.2305 1.3984-1.7344 1.1758-1.1211 2.4062-2.1289 3.6406-3.1914 2.5195-2.1289 4.9844-4.1992 7.6172-6.2148 0.28125-0.22266 0.55859-0.44922 0.83984-0.61719zm84.559 48.664c7.1133-4.0312 14.223-8.1758 20.664-13.215 6.5508-5.0977 11.871-11.199 16.969-17.695 4.8164-6.1602 9.6875-12.824 16.297-17.191 3.8633-2.5195 7.7266-2.8555 12.266-2.7422 2.6875 0.11328 5.375 0.16797 8.0625 0.28125-0.78516 13.887-6.7773 27.047-16.742 36.793-5.375 5.3203-11.648 9.9102-18.09 13.887-1.3984 0.89453-2.9102 1.7344-4.4805 2.2383-1.9023 0.61719-3.8633 0.61719-5.8789 0.50391-3.8086-0.16797-7.5586-0.44922-11.367-0.72656-6.3281-0.44922-12.656-0.95312-18.984-1.3984 0.44922-0.22266 0.83984-0.44922 1.2891-0.72656zm136.98-135.35c1.8477 0.11328 3.6953 0.61719 5.2656 1.625 1.625 1.1211 2.0703 2.5742 2.9688 4.1992 1.1211 1.9023 3.0234 1.8477 4.9844 1.9023 2.4648 0 4.9844 0.16797 7.4492 0.50391 8.6797 1.2891 17.414 6.1055 18.648 15.566 0.67188 5.0977-0.39062 10.078-1.9023 14.895-1.457 4.7031-2.6875 9.8008-4.9844 14.223-2.5195 4.8711-6.0469 9.3516-9.1836 13.832-2.6328 3.8086-5.4883 8.1211-10.023 9.7422-2.3516-1.3984-4.7031-2.8008-7.1133-4.0312-4.6484-2.4648-9.4648-4.8164-14.504-6.4414-5.375-1.793-10.977-2.3516-16.633-1.9609-4.3125 0.28125-8.5664 1.0625-12.711 2.1289 0.33594-1.3984 0.83984-2.6875 1.3984-4.0312 0.72656-1.8477 1.457-3.6406 2.1289-5.4883 0.72656-1.8477 1.457-3.6406 2.1289-5.4883 0.72656-1.793 1.3984-3.5859 2.4648-5.1523 0.22266-0.33594 0.28125-0.67188 0.16797-0.95312 3.0781-10.754 5.6562-21.672 7.1133-32.816 0.16797 0 0.33594-0.11328 0.50391-0.28125 5.8242-5.6016 13.105-12.602 21.84-12.098zm-11.535-2.9102c-1.6797 1.3438-3.1914 2.8555-4.7031 4.3672 0.28125-0.61719 0.55859-1.1758 0.78516-1.793 4.0312-6.7773 8.1758-13.551 12.375-20.273 0.16797 0.054687 0.28125 0.16797 0.50391 0.22266 2.5195 0.83984 5.2656 1.1758 7.8945 1.5664 4.5938 0.67188 9.2383 0.89453 13.887 0.72656-5.7109 2.9688-11.703 5.543-17.473 8.0078-4.5938 2.0156-9.3516 3.9219-13.273 7.1133zm57.289-38.863c-4.9297 9.2383-12.711 15.734-21.504 20.887h-0.054687c-5.207 0.50391-10.414 0.50391-15.625 0-2.6328-0.28125-5.2656-0.67188-7.8398-1.2305-0.78516-0.16797-1.6797-0.28125-2.4648-0.55859 2.4062-3.8633 4.8711-7.6719 7.3359-11.535 0.67188-1.0625 1.3984-2.1289 2.1289-3.2461 0.78516 0.44922 1.793 0.61719 2.9688 0.67187 6.2148 0.11328 12.434-0.95312 18.426-2.5742 6.2734-1.7344 12.375-4.0898 18.426-6.4961-0.50391 1.3984-1.0625 2.7422-1.793 4.0898zm-24.078-16.406c0.50391 0 1.0625 0 1.5664-0.11328 1.457-0.28125 2.9102-0.67188 4.3125-1.1211 2.6875-0.72656 5.3203-1.625 7.9531-2.5742 4.7617-1.793 9.3516-3.9219 13.719-6.3828 0.89453 6.6094 1.0078 13.215-0.72656 19.543-10.695 4.3125-21.672 8.7344-33.266 9.5195-1.3438 0.11328-2.6875 0.11328-4.0312 0.11328-0.61719 0-1.6797 0.11328-2.2383-0.16797 4.1445-6.3281 8.3438-12.602 12.656-18.816zm26.543-27.215c-1.0078 4.7617-0.11328 9.6328 0.67188 14.391-4.1445 2.4062-8.5117 4.5352-12.992 6.2734-2.2383 0.89453-4.5352 1.6797-6.832 2.3516-1.2305 0.39063-2.5195 0.72656-3.7539 1.0625-0.39062 0.11328-1.1211 0.39063-1.793 0.55859 3.4727-4.9297 7-9.8008 10.641-14.559 4.8164-6.2734 10.137-12.207 16.633-16.688-1.1758 2.0703-2.1289 4.3125-2.5742 6.6641zm-1.5664-6.6641c-4.4258 3.4727-8.2891 7.5586-11.816 11.871-4.6484 5.6562-8.8477 11.648-13.047 17.641 0-0.83984 0.11328-1.793 0.11328-2.1836v-4.3125-7.9531-15.734c8.1211 0.39062 16.742 2.0703 24.754 0.61719zm-27.215-0.67188v18.258 9.1836c0 1.5664-0.11328 3.1367 0 4.7031 0 0.39062 0.11328 0.72656 0.28125 1.0625-4.0312 5.8242-8.0078 11.648-11.93 17.586-0.72656-2.6875-1.5117-5.375-2.1836-8.1211-1.5117-5.8242-2.8008-11.648-3.6406-17.586-0.95312-6.6094-1.2305-13.328-0.67188-19.992 1.0625-0.67188 2.1289-1.2305 3.2461-1.793 4.7031-2.4062 9.6875-3.2461 14.895-3.2461zm-27.105 11.984c1.9609-1.9023 4.1445-3.6406 6.4414-5.207-0.78516 12.266 1.3984 24.414 4.4258 36.23 0.83984 3.1914 1.625 6.3828 2.5742 9.5742 0.11328 0.28125 0.16797 0.55859 0.33594 0.83984-3.3047 5.0391-6.5508 10.137-9.7422 15.23-0.39062-0.61719-0.61719-1.3438-0.83984-2.0156-3.3047-9.4062-5.207-19.207-6.832-29.008-0.95312-5.543-1.793-11.09-2.7422-16.633 0-0.28125-0.16797-0.44922-0.33594-0.61719 1.9023-3.0781 4.1992-5.8789 6.832-8.3984zm-8.6797 61.32c-2.0156-5.2656-4.0898-10.359-4.7617-16.016s-0.33594-11.426 0.39062-17.023c0.72656-5.543 1.793-11.199 4.2578-16.297 0.054687-0.11328 0.11328-0.22266 0.22266-0.33594 1.6797 9.9688 3.1367 19.938 5.375 29.793 1.1211 5.0391 2.4648 10.078 4.3125 14.953 0.39062 1.0625 0.89453 1.9023 1.5117 2.5742-1.0625 1.6797-2.1289 3.3594-3.1367 5.0391-1.9023 3.0234-3.7539 6.1055-5.6016 9.1836 0.054688-4.0312-1.0625-7.9531-2.5195-11.762zm-53.09-50.625c6.3281 0.28125 13.16 1.3438 17.977 5.8789 2.2383 2.1289 3.3594 4.7031 4.3672 7.5586 0.89453 2.6328 1.793 5.207 3.6406 7.3359 3.4727 3.9219 8.9023 5.1523 12.656 8.6797 2.3516 2.1836 3.3047 5.207 4.1445 8.2305 0.89453 3.4141 1.625 6.8867 2.1289 10.414 1.0078 6.8867 1.2891 13.887 1.0078 20.832-0.61719 15.793-4.0898 31.305-8.3984 46.426v0.11328c-0.95312 1.5117-1.625 3.1914-2.2969 4.8164-0.78516 1.9609-1.5117 3.9219-2.2969 5.8789-1.3438 3.4727-3.2461 7.1133-3.7539 10.863-4.4805 1.2891-8.8477 2.9688-13.047 4.8164-2.0156 0.89453-4.0312 1.9023-5.9375 3.0234-4.3672-0.67188-8.793-0.89453-13.215-0.83984 2.3516-3.5273 6.2148-6.0469 9.4648-8.6797 3.9766-3.2461 7.7852-6.7188 11.145-10.586 6.4414-7.3906 11.258-16.352 11.762-26.32 0.11328-2.7422 0-5.4883 0-8.2891 0.054688-2.9102 0.44922-5.7695 0.89453-8.625 0.83984-4.8711 1.8477-9.9102 1.3438-14.895-0.39062-4.0312-1.6797-8.0625-4.3672-11.258-3.0234-3.5859-7.5039-4.7617-11.984-5.4336-5.543-0.78516-11.312-1.457-16.855-0.95312-4.2578 0.39062-8.457 1.6797-11.648 4.5938-1.1758-2.2383-2.8555-4.2578-4.7617-5.7109-3.3047-2.5742-8.0625-0.28125-10.191 2.8555-0.11328-0.16797-0.22266-0.33594-0.33594-0.50391-1.1758-1.793-2.4062-3.6406-4.0898-5.0391-1.1758-0.95312-2.5742-1.5117-3.9766-1.9023v-0.11328c-2.2383-4.9297-5.543-8.9609-9.5195-12.207l0.054687-0.11328c3.0781-5.543 7.2227-10.359 11.703-14.785 2.2383-2.1836 4.5938-4.3125 6.9453-6.3828 2.4648-2.1836 4.9297-4.5352 7.6719-6.3828 5.7695-3.8633 12.992-3.7539 19.711-3.4727zm-102.26-26.266c-4.0312 1.7344-7.8398 3.9766-11.367 6.6094-2.2969 1.6797-4.5352 3.5859-6.6641 5.543-0.28125-6.832-0.22266-13.719 0.28125-20.551 2.9688-2.0703 5.0977-5.0391 7.4492-7.8398 3.1367-3.6953 6.7773-7 10.359-10.246 7.7266-6.8867 15.512-13.719 23.352-20.496 3.5859-3.1367 7.6719-7.4492 12.824-7.4492-2.1289 9.5742-6.4414 18.535-11.871 26.656-6.8867 10.246-15.512 19.152-24.305 27.777zm36.734-56.84h-0.11328c-4.3672-0.22266-8.0078 2.2969-11.258 4.9844-3.9766 3.3594-7.8945 6.7773-11.762 10.191-4.0312 3.5273-8.1211 7.1133-12.152 10.695-3.7539 3.3594-7.5586 6.6094-11.031 10.246-2.6875 2.8008-4.9297 6.4414-7.8945 9.0703 0.11328-1.625 0.28125-3.1914 0.44922-4.7617 0.39062-3.5859 0.95312-7.168 1.625-10.695 9.3516-16.297 20.551-31.527 35.895-42.617 4.4805-3.2461 9.6328-7.168 15.398-7 0.44922 1.1211 0.78516 2.2969 1.0625 3.5273 1.1211 5.3203 0.78516 11.031-0.16797 16.406zm-7.168-30.184c2.0156 2.4648 3.8633 5.0391 5.2656 7.8398-4.7617 0.22266-9.0156 2.8555-12.879 5.4336-4.0898 2.7422-7.9531 5.8242-11.648 9.1289-7.168 6.4961-13.383 14-18.871 21.953-1.8477 2.7422-3.6406 5.4883-5.375 8.3438 0.83984-3.9766 1.793-7.9531 2.8008-11.93 1.0625-4.1992 1.9609-8.3984 2.2969-12.711 9.1289-13.047 19.992-24.863 32.145-35.168 2.1289 2.3516 4.2578 4.7031 6.2734 7.168zm-22.566-24.246c3.4727 4.1992 7.6719 7.8945 11.426 11.816 1.0625 1.1211 2.1289 2.2969 3.1914 3.4141-11.367 9.5742-21.559 20.551-30.352 32.535 0-4.0898-0.44922-8.1758-0.55859-12.266-0.22266-9.8008 1.1758-19.543 4.0312-28.895 2.0703-6.832 5.2656-13.496 6.6094-20.496 0 0.28125 0 0.55859 0.054688 0.83984 0.61719 4.8711 2.4648 9.1836 5.543 12.992zm-15.23-8.9609c2.9102-3.3594 5.4336-7.0547 7.8398-10.809 0 8.3438-4.1445 16.297-6.6641 24.078-2.9102 9.0156-4.5352 18.535-4.6484 28.055-0.054688 4.9844 0.50391 9.9102 0.55859 14.84v1.8477c-3.8633-5.2656-4.4258-12.434-5.3203-18.762-1.2891-9.2969-3.3047-18.48-5.9375-27.496 5.3203-3.1914 10.078-6.9453 14.168-11.762zm-17.977 13.887c0.55859-0.28125 1.0625-0.55859 1.5664-0.89453 2.6328 9.1836 4.6484 18.594 5.9375 28.055 0.95312 7.2227 2.0156 15.062 7.3359 20.496-0.28125 3.2461-0.83984 6.4961-1.625 9.6875-1.2891 5.4336-2.5742 10.809-3.7539 16.238-1.9609-7.3906-4.3672-14.617-7.3906-21.672-3.6953-8.6797-8.2305-17.191-13.945-24.695-3.1914-4.1992-6.832-8.0625-10.754-11.535 0 0-0.054687 0-0.11328-0.054688 1.5664-1.5117 3.1914-2.9688 4.8711-4.3672 5.4883-4.4805 11.594-7.9531 17.863-11.258zm-31.473 25.816c2.0703-3.0234 4.4258-5.8789 7-8.5117 0 0 0 0.054688 0.054688 0.11328 13.832 12.207 22.625 29.23 28.449 46.535 1.6797 4.9844 3.0781 10.078 4.3125 15.23-0.39062 2.2969-0.78516 4.5938-1.1211 6.8867-0.39062 2.8008-0.67188 5.6562-0.95312 8.5117-8.9023-15.793-18.535-32.199-33.711-42.672-3.9219-2.6875-8.2305-4.8711-12.77-6.3828 1.625-7 4.6484-13.719 8.6797-19.656zm12.488 71.176c-5.207-3.6406-9.9688-7.7852-13.664-12.992-3.8086-5.375-6.4961-11.535-7.8398-17.977-1.2305-5.9922-1.2305-12.152-0.11328-18.09 17.191 5.8242 29.008 21.336 38.078 36.23 2.8555 4.6484 5.4883 9.4062 8.1758 14.168 0.11328 0.16797 0.28125 0.33594 0.44922 0.39062-0.39062 6.0469-0.50391 12.152-0.28125 18.199-6.3281-8.6797-16.129-13.887-24.754-19.938zm30.688 21.727c4.5938-4.0898 9.9102-7.7266 15.625-10.191 0.054687 0 0.16797-0.054687 0.22266-0.11328 4.8711-2.0703 10.023-3.2461 15.398-3.1367 5.4883 0.11328 10.977 1.5117 15.625 4.4805 2.2969 1.457 3.9219 3.5273 6.1055 5.0977 2.3516 1.7344 5.4883 1.457 8.2891 1.9023 6.7773 1.0078 13.047 3.4727 18.762 7.2812 4.9844 3.3594 9.7422 7.2812 11.762 13.16-0.16797 0.11328-0.28125 0.22266-0.44922 0.33594-2.9102 2.5195-5.8242 5.0391-8.625 7.7266-5.3203 5.0391-10.246 10.527-13.887 16.91-2.9688-2.1289-6.2734-3.9219-9.8008-5.2656-5.2656-2.0156-10.414-1.1211-15.625 0.61719-4.5938 1.5664-9.2969 3.3047-12.656 6.9453-0.11328 0.11328-0.16797 0.22266-0.22266 0.33594-1.0625-0.39062-2.1289-0.78516-3.2461-0.95312-7.7266-1.3438-15.062 2.7422-21.449 6.4961-5.7695 3.3594-10.922 7.8945-14.281 13.719-4.1445-2.8008-8.625-5.3203-13.328-6.8867-2.3516-0.78516-4.7617-0.95312-7.1133-0.72656 0.72656-5.2656 1.5664-10.695 3.7539-15.566 1.1211-2.4648 2.5742-4.8164 4.4258-6.7188 1.9609-1.9609 3.4727-3.5273 3.8633-6.3828 0.22266-1.7344 0.55859-3.4727 1.0078-5.0977 0.11328-0.16797 0.16797-0.39062 0.16797-0.61719 0.95312-3.5859 2.4062-7 4.4805-10.305 3.0234-4.8164 7-9.0703 11.258-12.879zm-86.352 96.207c-4.5352-8.625-6.6641-18.871-4.8164-28.504 0.44922-2.4062 1.1758-4.8164 2.1836-7.1133 1.0625-2.4062 2.4648-4.5938 3.6953-6.9453 2.4062-4.6484 3.3594-9.8555 6.2148-14.336 5.1523-8.0078 13.609-13.273 22.961-14.785 6.6641-1.1211 13.551-1.0078 20.328-1.2891 3.3594-0.16797 6.7188-0.28125 10.078-0.39063 2.2383-0.11328 5.1523-0.55859 7.168 0.72656-0.22266 1.0078-0.44922 2.0156-0.55859 3.0234-0.22266 1.8477-0.28125 3.6406-1.5664 5.0977-1.0078 1.1758-2.2383 2.1836-3.2461 3.4141-0.95312 1.1758-1.793 2.4062-2.5195 3.7539-3.1367 5.7695-4.1445 12.32-5.0391 18.703v0.39063c-1.9023 0.39062-3.6953 1.0625-5.4883 1.8477-4.4258 1.9609-8.3984 4.9297-11.816 8.3438-3.5273 3.4727-6.8867 7.3906-8.5117 12.098-1.7344 5.0977-2.0156 10.809-1.793 16.129 0.22266 5.7109 1.2305 11.367 2.5742 16.855 0.33594 1.3984 0.67188 2.7422 1.0625 4.1445-5.8789-0.39062-11.816 0.72656-17.191 3.1367h-0.054687c-4.1445-2.3516-7.1133-6.3828-8.0078-11.031-0.50391-2.5195-0.33594-4.7617-1.7344-7-1.2891-2.1289-2.7422-4.1445-3.9219-6.3281zm-121.41 109.36c6.832-6.1602 11.984-14.281 19.488-19.656 7.7852-5.543 17.527-3.3047 25.93-0.50391 8.0078 2.6875 15.566 6.5508 22.566 11.312 7 4.7617 13.383 10.414 19.207 16.633-27.383 0.72656-54.77 0.78516-82.152 0.11328-5.4336-0.11328-10.863-0.33594-16.238-0.50391 4.1445-1.7344 7.8945-4.3672 11.199-7.3906zm49.559 45.191c-4.7617 2.4648-9.6328 3.4727-14.953 2.4062-4.6484-0.95312-9.0703-2.7422-13.16-5.0977-7.9531-4.4805-14.055-10.922-20.215-17.527-5.2656-5.6562-10.809-11.367-17.473-15.289 29.848 1.0625 59.754 1.3984 89.656 0.89453 4.8164-0.11328 9.6328-0.22266 14.449-0.39063-9.5195 14.559-22.848 27.105-38.359 35zm70.449-35.223c-3.8633 0.22266-7.6719 0.72656-11.535 0.50391-1.625-0.11328-3.3594-0.33594-4.5352-1.5117-2.1289-2.1289-3.6406-4.9297-5.2656-7.4492-3.5273-5.4883-7.3359-10.863-9.9102-16.855-2.6328-5.9922-4.9844-12.152-7.4492-18.258-1.1211-2.8008-2.7422-5.7695-2.6875-8.8477 0.054687-3.0234 1.5664-5.8242 3.1914-8.3438 1.457-2.2969 3.4141-4.4258 4.3672-7 0.78516-2.1289 0.67188-4.3672 0.054687-6.4961-1.2305-4.3672-4.5938-8.3438-4.5938-13.047 0-2.8008 1.5117-5.3203 3.0781-7.5586 1.5664-2.2383 3.4727-4.1992 5.543-5.9375 4.4258-3.6953 10.473-7.3906 16.352-7.5586 5.9922-0.16797 11.816 2.0156 17.754 2.4062v0.28125c0.89453 4.8711 3.8633 9.1836 7.8945 11.871-2.1289 1.1211-4.1992 2.4648-5.7695 4.0898-2.1289 2.2969-0.83984 4.9844 0.95312 7 2.2383 2.5195 4.3672 4.8711 6.1055 7.7852 1.7344 2.8008 3.2461 5.7695 4.8711 8.5664 3.1914 5.4336 7.168 10.191 12.375 13.887 2.8555 2.0156 5.9375 3.6406 9.1836 4.8711 2.8555 1.0625 5.8242 1.625 8.793 2.1836-3.2461 2.5742-6.4414 5.207-9.5195 7.9531-1.5117 1.3438-4.7031 4.5352-2.5195 6.6094 0.89453 0.89453 2.5195 0.83984 3.7539 0.95312 1.7344 0.16797 3.4141 0.16797 5.1523 0.054687 2.3516-0.11328 4.6484-0.50391 6.8867-1.0078 2.5195 4.5938 5.9375 8.625 9.6875 12.32 3.9219 3.8633 8.0625 7.5039 12.375 10.809 0.16797 0.11328 0.33594 0.22266 0.50391 0.33594-3.0234 0.28125-5.4336 2.0703-8.1211 3.3047-3.4141 1.5664-7.4492 1.5664-11.145 1.9023-7.8945 0.72656-15.625 0.95312-23.465 0-7.1133-0.78516-14.055-1.1758-21.168-0.22266-3.6406 0.50391-7.2227 1.2891-10.754 2.2969-0.11328 0-0.22266-0.054688-0.39063-0.054688zm2.2383 52.305c-5.6562 0.89453-11.199 0.28125-16.238-2.5742-2.4062-1.3984-4.6484-3.1914-6.2734-5.4883-0.72656-1.0078-1.3438-2.1289-1.793-3.3594-0.50391-1.3984-0.72656-2.8555-1.2891-4.1992-1.0078-2.5742-3.0781-3.6953-5.7109-4.1445-2.6875-0.50391-5.0391-1.1211-5.8242-4.0312-1.6797-6.2148 4.8711-10.473 9.2383-13.383 5.375-3.5859 11.09-6.7188 17.078-9.2383 5.9922-2.5195 12.32-4.4258 18.762-5.4336 6.6641-1.0625 13.273-0.95313 19.992-0.16797 4.0312 0.44922 8.0625 0.89453 12.152 0.89453 4.0898 0 8.1758-0.28125 12.207-0.61719 3.6406-0.33594 7.5586-0.39062 11.09-1.3984 2.1836-0.61719 4.1992-2.0156 6.3281-2.9688-9.5195 7.1133-17.863 16.297-19.32 28.504 0 0.33594-0.054687 0.72656-0.11328 1.1211-12.488 5.0977-24.527 12.266-33.543 22.289-5.543 1.5117-11.09 3.4141-16.801 4.3125zm122.53 41.215c-5.9375 7.2812-12.434 14.672-20.273 19.879-4.3125 2.8555-9.0156 4.8711-13.887 6.5508-4.8164 1.6797-9.6328 3.3594-14.672 4.1445-9.7422 1.5664-18.871-1.793-26.375-8.0078-3.6953-3.0781-7-6.7188-9.9688-10.473-1.5664-1.9609-3.0234-3.9219-4.4805-5.9375-1.2891-1.7344-2.4648-3.7539-4.1992-5.1523-6.3828-5.1523-15.176 5.1523-20.664-1.793-2.3516-2.9688-2.9102-7.0547-2.8555-10.695 0-4.5352 0.83984-8.9609 2.2383-13.273 5.8789-17.977 21.281-30.352 37.855-38.137 1.625-0.78516 3.3047-1.457 4.9844-2.1836 0.054687 4.5938 1.3438 9.7422 6.2734 10.359 3.2461 0.39062 6.5508-1.2891 9.3516-2.7422 3.0234-1.5664 5.8789-3.4141 8.8477-5.0977 2.9688-1.6797 6.1602-3.5273 9.5195-4.1992 1.8477-0.39062 3.1914 0.33594 4.7031 1.3438 1.625 1.0625 3.2461 2.1289 4.8711 3.1367 5.8789 3.5273 12.266 6.2734 18.93 8.0625 10.191 2.7422 21.055 2.9688 31.191 0.28125 0.83984 20.16-8.9609 38.641-21.391 53.871zm34.887-62.328c-11.09 7.1133-24.922 9.2969-37.855 7.168-6.5508-1.1211-12.938-3.1914-18.93-6.1055-2.9688-1.457-5.8242-3.0781-8.5664-4.8711-2.5195-1.625-4.7617-3.5273-8.0078-3.0234-6.1055 1.0078-11.535 5.207-16.801 8.1758-2.8008 1.5664-6.0469 3.5273-9.2969 3.8633-3.3594 0.33594-4.7617-2.5195-5.1523-5.4336-1.0625-7.4492 1.8477-15.121 6.1602-21.113 4.4258-6.1055 10.414-10.809 16.688-14.895l0.054688-0.054688c3.3594 2.2969 6.9453 4.3125 10.695 5.8789 5.6016 2.2969 11.648 3.3047 17.641 4.0898 7.2227 0.95312 14.449 1.457 21.727 1.5664 8.2891 0.50391 16.52 1.1758 24.809 1.793 4.0898 0.33594 8.2305 0.61719 12.32 0.83984 3.8086 0.22266 7.168-0.16797 10.586-1.9609 1.1211-0.61719 2.2383-1.2891 3.3594-1.9609 2.0703 3.5859 5.375 6.1602 9.0156 8.1211 0.44922 0.22266 0.95312 0.44922 1.457 0.72656-1.8477 1.8477-4.3672 2.5195-6.832 3.1367-2.8008 0.72656-5.4883 1.5664-8.0078 3.0234-5.4336 3.0781-9.8008 7.7266-15.062 11.09zm106.9 18.426c2.5742 3.9766 5.6016 7.5586 7.6719 11.871 4.3672 8.793 5.7695 19.039 4.1992 28.727-1.5117 9.5195-5.7695 18.535-11.816 26.039-3.0781 3.8086-6.6641 7.6172-10.977 10.023-2.2969 1.2891-4.8164 2.0703-7.3906 2.6328-2.4648 0.55859-5.0391 1.1211-7.5586 1.2891s-4.3125-0.44922-5.7695-2.5195c-1.0078-1.3984-1.9609-2.8555-3.6406-3.5273-2.1289-0.83984-4.2578 0-6.0469 1.2305-2.0703 1.3438-3.9766 2.8555-6.1602 4.1445-4.3672 2.5195-9.1836 4.3672-14.168 4.8711-4.9297 0.50391-9.9102-0.16797-14.617-1.625-9.6875-2.9688-17.809-9.2969-24.863-16.406-3.4727-3.5273-6.7773-7.2227-9.8555-11.09-3.1914-3.9766-5.7695-8.457-4.8164-13.777 0.95312-5.2656 4.1445-10.137 6.6094-14.84 2.6328-4.9844 5.207-9.9102 7.8398-14.895 2.3516-4.5352 4.7617-9.1289 6.1055-14.113 1.2891-4.7617 1.457-9.7422 0.50391-14.617-0.44922-2.2383-1.1758-4.4258-2.0703-6.4961 1.2305-1.0078 2.5195-1.9609 3.8086-2.8555 3.0234-2.0703 6.2148-3.3047 9.7422-4.2578 3.1367-0.78516 6.3828-1.7344 8.457-4.3672 3.4727 1.5664 7.1133 2.8555 10.641 4.3125 10.809 4.4258 21.617 9.1289 32.594 13.16 9.0703 3.3047 18.426 5.6016 28.055 5.2656-0.55859 4.3125 1.0625 8.1758 3.4141 11.816zm105.89 47.992c-5.4336-0.11328-10.359 2.1289-15.23 4.1992-5.375 2.2969-10.922 3.9219-16.742 4.3672-6.0469 0.50391-12.098-0.28125-18.09-1.1758-5.375-0.78516-10.809-1.6797-15.566-4.3672-4.0312-2.2969-7.5039-5.4883-10.414-9.1289-6.7188-8.3984-9.9688-18.816-13.047-28.953-0.89453-3.0234-1.793-5.9922-2.8008-9.0156-0.83984-2.5742-1.625-5.1523-3.1367-7.5039-1.9609-3.0234-4.4805-5.7695-7.3906-8.0625 7.5039 3.3047 15.68 4.8164 23.465 7.3906 8.3438 2.7422 16.406 6.2734 24.137 10.473 7.8398 4.1992 15.289 9.0703 22.344 14.504 3.6406 2.8008 7.168 5.7695 10.863 8.457 3.3594 2.4648 6.832 4.6484 10.473 6.7773 6.8867 3.9766 14.113 7.8398 19.602 13.719-2.7422-0.89453-5.543-1.5664-8.457-1.6797z"/>
  <use x="70" y="644" xlink:href="#v"/>
  <use x="90.550781" y="644" xlink:href="#c"/>
  <use x="104.359375" y="644" xlink:href="#a"/>
  <use x="123.347656" y="644" xlink:href="#e"/>
  <use x="142.242188" y="644" xlink:href="#b"/>
  <use x="155.628906" y="644" xlink:href="#a"/>
  <use x="174.617188" y="644" xlink:href="#j"/>
  <use x="204.410156" y="644" xlink:href="#i"/>
  <use x="224.453125" y="644" xlink:href="#h"/>
  <use x="252.453125" y="644" xlink:href="#g"/>
  <use x="269.117188" y="644" xlink:href="#f"/>
  <use x="289.050781" y="644" xlink:href="#u"/>
  <use x="298.648438" y="644" xlink:href="#t"/>
  <use x="308.246094" y="644" xlink:href="#s"/>
  <use x="328.289062" y="644" xlink:href="#e"/>
  <use x="70" y="672" xlink:href="#r"/>
  <use x="82.183594" y="672" xlink:href="#c"/>
  <use x="95.992188" y="672" xlink:href="#d"/>
  <use x="115.226562" y="672" xlink:href="#q"/>
  <use x="154.152344" y="672" xlink:href="#b"/>
  <use x="167.535156" y="672" xlink:href="#f"/>
  <use x="187.46875" y="672" xlink:href="#a"/>
  <use x="216.207031" y="672" xlink:href="#p"/>
  <use x="239.640625" y="672" xlink:href="#d"/>
  <use x="258.878906" y="672" xlink:href="#o"/>
  <use x="278.8125" y="672" xlink:href="#n"/>
  <use x="308.492188" y="672" xlink:href="#m"/>
  <use x="329.015625" y="672" xlink:href="#c"/>
  <use x="342.820312" y="672" xlink:href="#d"/>
  <use x="362.058594" y="672" xlink:href="#l"/>
  <use x="371.65625" y="672" xlink:href="#a"/>
  <use x="390.648438" y="672" xlink:href="#k"/>
  <use x="407.242188" y="672" xlink:href="#b"/>
 </g>
</svg>
